<svg width="64" height="64" viewBox="0 0 64 64" fill="none" xmlns="http://www.w3.org/2000/svg">
  <!-- Fundo verde -->
  <rect width="64" height="64" rx="12" fill="#009C3B"/>
  
  <!-- Losango amarelo -->
  <path d="M32 8L56 32L32 56L8 32L32 8Z" fill="#FFDF00"/>
  
  <!-- Círculo azul -->
  <circle cx="32" cy="32" r="12" fill="#002776"/>
  
  <!-- Cifrão R$ em branco -->
  <path d="M29.5 25.5C29.5 24.12 30.62 23 32 23H34C35.38 23 36.5 24.12 36.5 25.5C36.5 26.88 35.38 28 34 28H32V30" stroke="white" stroke-width="2.5" stroke-linecap="round" stroke-linejoin="round"/>
  <path d="M32 30V34M32 38V39" stroke="white" stroke-width="2.5" stroke-linecap="round" stroke-linejoin="round"/>
  
  <!-- $ em branco -->
  <path d="M40 26H42C43.1 26 44 26.9 44 28C44 29.1 43.1 30 42 30H40V32M40 32V36M40 36V39M40 36H42C43.1 36 44 34.9 44 33.8C44 32.7 43.1 32 42 32H40" stroke="white" stroke-width="2" stroke-linecap="round" stroke-linejoin="round"/>
</svg> 